<svg width="672" height="676" viewBox="0 0 672 676" fill="none" xmlns="http://www.w3.org/2000/svg">
<path d="M651.09 642.596C651.09 660.652 508.979 675.283 333.653 675.283C158.327 675.283 16.2152 660.652 16.2152 642.596C16.2152 624.54 158.327 609.91 333.653 609.91C508.979 609.91 651.09 624.62 651.09 642.596Z" fill="#EBEBEB"/>
<path d="M8.67587 590.109L89.9281 589.725L171.164 589.581L333.653 589.325L496.141 589.581L577.377 589.725L658.614 590.109L577.377 590.509L496.141 590.653L333.653 590.909L171.164 590.653L89.9281 590.509L8.67587 590.109Z" fill="#263238"/>
<path d="M468.945 38.631H198.328C194.7 38.6645 191.114 39.4123 187.775 40.8318C184.436 42.2512 181.409 44.3145 178.867 46.9039C176.325 49.4932 174.318 52.5579 172.961 55.9228C171.604 59.2878 170.922 62.8872 170.956 66.5154V623.564C170.892 630.89 173.739 637.942 178.872 643.171C184.004 648.399 191.002 651.376 198.328 651.448H468.945C476.274 651.376 483.276 648.4 488.413 643.173C493.551 637.945 496.405 630.893 496.349 623.564V66.5154C496.409 59.1849 493.556 52.1304 488.418 46.9019C483.279 41.6735 476.276 38.6986 468.945 38.631ZM479.222 606.356C479.222 621.019 468.241 632.88 454.699 632.88H212.607C199.033 632.88 188.052 621.019 188.052 606.356V87.6288C187.988 57.7595 199.033 56.3669 212.607 56.3669H261.108C263.926 56.3669 266.231 59.5683 266.231 63.5381V65.2509C266.231 74.551 271.321 74.583 277.564 74.583H389.678C395.985 74.583 401.043 74.583 401.043 65.2509V63.4741C401.043 59.5043 403.316 56.3029 406.181 56.3029H454.667C468.209 56.3029 479.19 60.2726 479.19 87.6288L479.222 606.356Z" fill="#37474F"/>
<path d="M479.222 87.6288V606.356C479.222 621.019 468.241 632.88 454.699 632.88H212.607C199.033 632.88 188.052 621.019 188.052 606.356V87.6288C187.988 57.7595 199.033 56.3669 212.607 56.3669H261.108C263.926 56.3669 266.231 59.5683 266.231 63.5381V65.2509C266.231 74.551 271.321 74.583 277.564 74.583H389.678C395.985 74.583 401.043 74.583 401.043 65.2509V63.4741C401.043 59.5043 403.316 56.3029 406.181 56.3029H454.667C468.241 56.3669 479.222 60.2726 479.222 87.6288Z" fill="url(#paint0_radial_1_9216)"/>
<path opacity="0.1" d="M234.134 478.249C234.236 477.501 234.62 476.82 235.207 476.345C235.795 475.87 236.541 475.638 237.294 475.696C244.413 475.596 251.075 480.619 257.254 486.017C258.626 487.206 260.115 488.445 261.653 487.189C262.129 486.795 262.477 486.268 262.651 485.676C262.917 484.707 262.917 483.684 262.651 482.715C262.424 481.917 262.043 481.171 261.528 480.52C258.842 476.985 255.574 475.28 252.921 471.629C251.435 469.541 250.204 467.282 249.253 464.901C248.422 462.797 246.759 459.413 247.424 456.585C248.164 453.184 250.701 453.483 252.239 453.94C257.104 455.396 261.645 458.864 265.77 463.18C270.169 467.771 274.153 473.301 278.12 478.806C279.617 480.885 281.197 483.039 283.11 483.796C285.022 484.553 287.442 483.322 288.249 480.312C289.056 477.301 288.108 473.841 287.908 470.848C287.642 467.275 287.815 463.683 288.424 460.153C288.694 458.289 289.324 456.495 290.278 454.872C292.424 451.72 295.601 452.826 297.68 455.204C299.265 457.195 300.492 459.446 301.306 461.858C303.568 467.895 304.89 475.23 305.464 482.532C305.78 486.89 306.445 491.439 308.242 494.832C311.144 500.304 316.558 499.864 320.758 496.994C328.068 492.005 333.707 480.727 335.212 468.12C335.703 464.011 335.827 459.579 337.324 456.128C338.63 453.15 341.981 451.138 343.62 454.348C344.279 455.953 344.464 457.714 344.152 459.421C343.859 461.112 343.445 462.779 342.913 464.411C342.081 467.238 341.25 472.544 343.495 474.191C343.83 474.394 344.205 474.522 344.594 474.565C344.984 474.608 345.378 474.566 345.749 474.44C353.1 472.918 359.937 465.991 364.427 456.335C366.056 452.702 367.299 448.909 368.136 445.017C368.677 442.647 368.902 440.085 369.5 437.723C369.888 435.866 370.665 434.111 371.779 432.575C374.64 429.149 381.243 430.763 381.617 438.106C381.825 442.314 380.694 446.472 380.253 450.63C379.996 453.233 381.601 453.208 382.798 453.125C388.537 452.543 393.61 446.755 398.109 440.734C403.456 433.573 409.378 424.276 416.679 424.01C418.343 423.943 421.112 424.159 422.11 426.729C422.572 428.304 422.572 429.978 422.11 431.553C420.63 437.69 416.288 440.867 412.962 443.894C403.585 452.696 395.336 462.626 388.404 473.459C387.347 475.122 386.258 477.858 387.264 479.497C387.463 479.798 387.747 480.035 388.08 480.175C388.413 480.316 388.78 480.355 389.135 480.287C392.57 480.029 395.789 477.293 398.924 475.031C402.059 472.769 405.619 470.789 408.904 472.536C409.916 473.142 410.798 473.943 411.499 474.892C412.2 475.841 412.706 476.92 412.987 478.066C413.574 480.077 413.668 482.199 413.261 484.254C412.055 489.9 406.841 492.445 403.972 495.223C400.021 499.034 396.404 503.177 393.161 507.606C390.167 511.706 387.339 516.197 384.345 520.23C373.534 534.634 358.564 536.772 345.258 538.443C330.779 540.256 316.267 539.275 301.871 537.379C291.401 535.982 281.08 532.996 270.86 529.462C267.35 528.189 263.865 526.8 260.422 525.154C256.722 523.391 251.274 522.301 249.852 515.365C249.553 513.868 249.902 512.654 250.892 512.089C253.961 510.35 258.335 512.679 261.221 514.218C265.204 516.347 268.98 519.382 273.072 521.029C273.731 521.348 274.447 521.532 275.179 521.569C275.91 521.606 276.642 521.496 277.33 521.245C278.002 520.963 278.557 520.458 278.901 519.815C279.336 518.968 279.443 517.991 279.201 517.07C279.03 516.576 278.745 516.128 278.369 515.764C271.039 508.2 262.275 502.173 252.588 498.034C249.47 496.695 246.285 495.597 243.282 493.701C240.856 492.2 238.761 490.219 237.128 487.88C235.673 485.767 233.427 481.817 234.134 478.249Z" fill="#2654E5"/>
<path d="M545 530.239H164V530.487H545V530.239Z" fill="#EBEBEB"/>
<path d="M344.594 486.07H197.459C196.307 486.067 195.202 485.47 194.388 484.41C193.573 483.35 193.116 481.913 193.116 480.415V211.605C193.126 210.116 193.588 208.692 194.401 207.642C195.214 206.593 196.313 206.003 197.459 206H344.594C345.748 206 346.855 206.596 347.671 207.656C348.487 208.717 348.945 210.155 348.945 211.655V480.415C348.945 481.915 348.487 483.353 347.671 484.414C346.855 485.474 345.748 486.07 344.594 486.07ZM197.459 206.198C196.357 206.201 195.301 206.772 194.522 207.785C193.744 208.799 193.307 210.173 193.307 211.605V480.415C193.307 481.847 193.744 483.221 194.522 484.235C195.301 485.249 196.357 485.82 197.459 485.822H344.594C345.697 485.82 346.754 485.249 347.534 484.236C348.313 483.222 348.752 481.848 348.755 480.415V211.605C348.752 210.172 348.313 208.798 347.534 207.785C346.754 206.771 345.697 206.201 344.594 206.198H197.459Z" fill="#EBEBEB"/>
<path d="M509.422 486.07H362.28C361.127 486.067 360.021 485.471 359.206 484.411C358.39 483.351 357.931 481.914 357.929 480.415V211.605C357.941 210.115 358.405 208.691 359.219 207.642C360.033 206.592 361.133 206.003 362.28 206H509.422C510.567 206.005 511.664 206.596 512.476 207.646C513.287 208.695 513.748 210.118 513.758 211.605V480.415C513.758 481.911 513.302 483.347 512.489 484.407C511.676 485.467 510.574 486.065 509.422 486.07ZM362.28 206.198C361.177 206.201 360.12 206.771 359.34 207.785C358.561 208.798 358.122 210.172 358.12 211.605V480.415C358.122 481.848 358.561 483.222 359.34 484.236C360.12 485.249 361.177 485.82 362.28 485.822H509.422C510.525 485.82 511.582 485.249 512.362 484.236C513.142 483.222 513.581 481.848 513.583 480.415V211.605C513.581 210.172 513.142 208.798 512.362 207.785C511.582 206.771 510.525 206.201 509.422 206.198H362.28Z" fill="#EBEBEB"/>
<path d="M464.99 443.356C448.988 398.127 391.716 413.22 358.119 362.098C324.523 310.977 293.54 238.365 257.977 253.447C222.415 268.53 213.279 234.393 201.849 241.652C190.419 248.912 202.969 264.213 220.137 266.976C245.343 271.036 269.339 284.921 274.239 317.137C279.824 353.888 251.462 346.243 240.711 335.735C228.259 323.584 215.305 354.225 240.451 359.504C265.597 364.782 309.969 348.333 339.184 384.658C357.632 407.595 376.263 413.606 400.647 423.807C425.031 434.007 372.361 476.058 361.526 499.598C350.69 523.139 359.583 530.239 359.583 530.239H419.971C442.069 525.614 480.992 488.576 464.99 443.356Z" fill="#A7D5FF"/>
<path d="M239.065 318.226C232.58 315.186 223.886 300.34 233.891 298.885C243.896 297.429 251.081 323.851 239.065 318.226Z" fill="#A7D5FF"/>
<path d="M453.133 382.153C457.781 374.032 478.767 364.168 480.032 377.28C481.297 390.393 444.53 397.196 453.133 382.153Z" fill="#A7D5FF"/>
<path d="M283.543 433.998C278.894 437.414 250.129 408.1 260.835 397.236C271.541 386.372 286.286 431.987 283.543 433.998Z" fill="#A7D5FF"/>
<path d="M418.798 250.566C415.529 243.168 416.702 218.775 424.894 221.905C433.085 225.034 424.855 264.252 418.798 250.566Z" fill="#A7D5FF"/>
<path d="M376.956 364.039C353.57 322.197 386.047 286.03 424.246 272.928C462.445 259.825 452.585 243.841 445.521 232.165C438.457 220.489 450.093 206.416 464.815 218.171C479.537 229.927 476.001 260.756 454.01 280.84C432.018 300.925 439.265 311.333 451.198 345.025C464.822 383.49 403.718 411.923 376.956 364.039Z" fill="#A7D5FF"/>
<path d="M313.977 449.794C299.156 465.966 276.974 450.932 254.83 432.463C229.875 411.665 221.996 386.639 209.956 393.235C188.384 405.06 272.768 454.904 253.253 465.471C233.738 476.038 231.315 448.803 221.912 436.087C212.509 423.371 195.128 435.434 219.26 469.353C243.393 503.272 236.443 530.239 236.443 530.239H347.642C352.008 517.375 328.79 433.611 313.977 449.794Z" fill="#A7D5FF"/>
<path opacity="0.3" d="M473.508 530.274C472.61 526.199 461.399 528.61 459.079 528.985C454.57 529.802 450.155 531.078 445.906 532.794C441.224 534.623 435.785 537.326 430.936 534.54C428.134 532.918 437.864 529.733 438.745 529.409C442.881 527.959 446.873 526.13 450.671 523.945C452.21 523.03 455.187 520.843 453.906 518.614C452.842 516.776 449.024 516.951 446.704 517.234C439.672 518.108 432.775 519.851 426.171 522.423C419.745 524.974 413.455 527.856 407.326 531.055C404.949 532.389 402.366 533.317 399.683 533.8C396.756 534.216 393.172 533.6 392.016 531.97C390.86 530.34 392.348 528.461 392.689 526.831C393.169 524.882 392.967 522.827 392.115 521.009C391.547 519.793 390.598 518.795 389.412 518.165C386.244 516.502 381.454 517.117 378.269 518.431C376.204 519.305 374.319 520.551 372.705 522.107C369.454 525.133 367.174 529.054 366.152 533.376C365.894 534.729 365.372 536.019 364.616 537.17C363.86 538.322 362.884 539.313 361.744 540.087C357.286 543.089 349.119 542.915 342.874 541.409C331.971 538.773 323.655 532.727 321.65 525.899C320.677 522.648 320.203 519.288 315.829 517.982C313.001 517.15 307.08 517.724 308.344 521.309C308.805 522.29 309.404 523.2 310.124 524.011C311.28 525.533 312.511 528.402 309.076 529.326C307.963 529.559 306.821 529.612 305.691 529.484C294.647 528.743 284.484 525.059 277.898 519.87C275.75 518.183 273.929 516.117 272.525 513.774C271.744 512.485 271.461 511.104 270.604 509.824C269.788 508.599 268.632 507.64 267.278 507.063C263.036 505.233 253.073 506.181 252.375 510.181C252.001 512.343 253.348 514.689 254.038 516.743C254.163 517.002 254.193 517.296 254.121 517.575C253.922 518.098 253.132 518.248 252.458 518.29C243.551 518.88 234.91 515.421 227.434 511.811C219.517 507.986 210.801 503.004 199.798 502.946C197.523 502.845 195.246 503.109 193.054 503.728C192.496 503.869 191.978 504.136 191.54 504.509C191.271 504.789 191.093 505.143 191.028 505.526C190.962 505.909 191.013 506.302 191.174 506.655C191.53 507.386 192.062 508.017 192.721 508.493C196.048 511.204 200.705 512.302 204.955 513.699C217.563 517.803 229.754 523.094 241.364 529.5C242.536 530.157 244.616 531.679 242.969 532.827C241.322 533.974 237.979 533.226 236.008 532.902C232.432 532.32 228.997 531.396 225.513 530.515C220.905 529.359 215.533 528.294 210.543 529.259C207.907 529.766 205.553 530.848 204.314 532.311C203.888 532.74 203.608 533.292 203.512 533.889C203.417 534.486 203.511 535.097 203.782 535.638C205.495 538.69 213.304 540.012 217.571 541.459C223.035 543.323 228.376 545.528 233.563 548.062C237.996 550.25 242.112 552.653 246.603 554.807C262.646 562.508 285.05 563.489 305.084 564.238C326.832 565.069 348.679 564.363 370.368 563.157C386.169 562.275 401.679 560.537 417.164 558.5C421.614 557.909 426.038 557.194 430.471 556.587C434.97 556.071 439.42 555.189 443.777 553.95C445.342 553.551 446.803 552.819 448.06 551.805C449.249 550.707 449.623 549.26 447.494 548.836C443.037 547.946 438.446 548.961 434.088 549.759C429.198 550.646 424.352 551.677 419.551 552.853C417.363 553.441 415.141 553.893 412.898 554.208C410.644 554.529 408.348 554.382 406.153 553.776C405.438 553.551 404.656 553.152 404.615 552.52C404.573 551.888 405.172 551.489 405.787 551.248C414.761 547.697 424.291 545.426 433.889 543.347C440.4 541.933 447.029 541.068 453.59 539.962C459.57 538.964 465.874 538.723 471.055 534.972C472.079 534.309 472.877 533.349 473.342 532.22C473.587 531.601 473.645 530.925 473.508 530.274Z" fill="#2654E5"/>
<path opacity="0.3" d="M216.165 496.642C213.728 489.706 205.046 477.44 203.217 484.691C202.235 488.725 216.165 496.642 216.165 496.642Z" fill="#2654E5"/>
<path opacity="0.3" d="M434.205 510.248C438.845 506.015 444.633 503.487 445.382 507.212C446.08 510.73 434.205 510.248 434.205 510.248Z" fill="#2654E5"/>
<path opacity="0.3" d="M243.817 476.575C240.64 474.911 238.162 472.242 240.025 471.127C241.888 470.013 243.817 476.575 243.817 476.575Z" fill="#2654E5"/>
<g filter="url(#filter0_d_1_9216)">
<path d="M404.217 378.34C404.217 378.34 406.661 381.377 406.661 383.886V399.283C406.661 400.942 404.217 402.374 404.217 402.374C404.217 402.374 406.661 404.215 406.661 405.367V414.638C406.661 415.575 404.217 417.545 404.217 417.545C404.217 417.545 406.661 419.43 406.661 420.409V430.305C406.661 431.069 404.217 432.631 404.217 432.631C404.217 432.631 406.661 434.084 406.661 434.784V445.347C406.661 446.133 404.217 447.738 404.217 447.738C404.217 447.738 406.661 449.482 406.661 450.365V459.722C406.661 460.713 404.217 462.705 404.217 462.705C404.217 462.705 406.661 465.364 406.661 466.247V474.958C406.661 475.83 404.217 477.833 404.217 477.833C404.217 477.833 406.661 479.405 406.661 480.364V524.177C406.661 532.953 400.635 555.274 390.479 555.274H286.182C276.026 555.274 270 532.953 270 524.177V480.407C270 479.448 272.444 477.876 272.444 477.876C272.444 477.876 270 475.873 270 475.001V466.29C270 465.407 272.444 462.748 272.444 462.748C272.444 462.748 270 460.756 270 459.765V450.408C270 449.525 272.444 447.781 272.444 447.781C272.444 447.781 270 446.176 270 445.39V434.827C270 434.084 272.444 432.674 272.444 432.674C272.444 432.674 270 431.113 270 430.348V420.453C270 419.473 272.444 417.588 272.444 417.588C272.444 417.588 270 415.618 270 414.681V405.41C270 404.258 272.444 402.417 272.444 402.417C272.444 402.417 270 400.985 270 399.327V383.929C270 381.42 272.444 378.383 272.444 378.383V282.013C272.444 282.013 270 278.977 270 275.747C270 268.769 270.938 237.974 282.642 212.551C294.347 187.129 316.892 173.164 316.892 173.164V162.493H313.447V159.112H316.892V157.109H313.447V153.653H316.892V146.341H359.791V153.685H363.225V157.109H359.791V159.166H363.225V162.493H359.791V173.142C359.791 173.142 382.367 187.14 394.04 212.53C405.713 237.92 406.682 268.748 406.682 275.725C406.682 278.955 404.238 281.992 404.238 281.992L404.217 378.34Z" fill="#2654E5"/>
<path opacity="0.8" d="M404.217 378.34C404.217 378.34 406.661 381.377 406.661 383.886V399.283C406.661 400.942 404.217 402.374 404.217 402.374C404.217 402.374 406.661 404.215 406.661 405.367V414.638C406.661 415.575 404.217 417.545 404.217 417.545C404.217 417.545 406.661 419.43 406.661 420.409V430.305C406.661 431.069 404.217 432.631 404.217 432.631C404.217 432.631 406.661 434.084 406.661 434.784V445.347C406.661 446.133 404.217 447.738 404.217 447.738C404.217 447.738 406.661 449.482 406.661 450.365V459.722C406.661 460.713 404.217 462.705 404.217 462.705C404.217 462.705 406.661 465.364 406.661 466.247V474.958C406.661 475.83 404.217 477.833 404.217 477.833C404.217 477.833 406.661 479.405 406.661 480.364V524.177C406.661 532.953 400.635 555.274 390.479 555.274H286.182C276.026 555.274 270 532.953 270 524.177V480.407C270 479.448 272.444 477.876 272.444 477.876C272.444 477.876 270 475.873 270 475.001V466.29C270 465.407 272.444 462.748 272.444 462.748C272.444 462.748 270 460.756 270 459.765V450.408C270 449.525 272.444 447.781 272.444 447.781C272.444 447.781 270 446.176 270 445.39V434.827C270 434.084 272.444 432.674 272.444 432.674C272.444 432.674 270 431.113 270 430.348V420.453C270 419.473 272.444 417.588 272.444 417.588C272.444 417.588 270 415.618 270 414.681V405.41C270 404.258 272.444 402.417 272.444 402.417C272.444 402.417 270 400.985 270 399.327V383.929C270 381.42 272.444 378.383 272.444 378.383V282.013C272.444 282.013 270 278.977 270 275.747C270 268.769 270.938 237.974 282.642 212.551C294.347 187.129 316.892 173.164 316.892 173.164V162.493H313.447V159.112H316.892V157.109H313.447V153.653H316.892V146.341H359.791V153.685H363.225V157.109H359.791V159.166H363.225V162.493H359.791V173.142C359.791 173.142 382.367 187.14 394.04 212.53C405.713 237.92 406.682 268.748 406.682 275.725C406.682 278.955 404.238 281.992 404.238 281.992L404.217 378.34Z" fill="white"/>
<path d="M394.325 383.606C394.325 383.606 396.432 386.19 396.432 388.322V401.405C396.432 402.815 394.325 404.032 394.325 404.032C394.325 404.032 396.432 405.604 396.432 406.573V415.532C396.432 416.329 394.325 418.008 394.325 418.008C394.325 418.008 396.432 419.602 396.432 420.442V431.005C396.432 431.651 394.325 432.975 394.325 432.975C394.325 432.975 396.432 434.214 396.432 434.849V445.972C396.432 446.639 394.325 448.007 394.325 448.007C394.325 448.007 396.432 449.493 396.432 450.236V460.347C396.432 461.186 394.325 462.877 394.325 462.877C394.325 462.877 396.432 465.138 396.432 465.892V475.453C396.432 476.186 394.325 477.887 394.325 477.887C394.325 477.887 396.432 479.233 396.432 480.041V523.208C396.432 530.67 391.322 544.259 382.683 544.259H294.104C285.466 544.259 280.409 529.593 280.409 522.131V480.041C280.409 479.233 282.516 477.887 282.516 477.887C282.516 477.887 280.409 476.186 280.409 475.453V465.892C280.409 465.138 282.516 462.877 282.516 462.877C282.516 462.877 280.409 461.186 280.409 460.347V450.236C280.409 449.493 282.516 448.007 282.516 448.007C282.516 448.007 280.409 446.639 280.409 445.972V434.849C280.409 434.214 282.516 432.975 282.516 432.975C282.516 432.975 280.409 431.651 280.409 431.005V420.442C280.409 419.602 282.516 418.008 282.516 418.008C282.516 418.008 280.409 416.329 280.409 415.532V406.573C280.409 405.604 282.516 404.032 282.516 404.032C282.516 404.032 280.409 402.815 280.409 401.405V388.322C280.409 386.168 282.516 383.606 282.516 383.606V280.237C281.309 278.719 280.575 276.866 280.409 274.917C280.409 269.727 281.02 249.075 287.783 229.5C287.92 229.101 288.057 228.714 288.205 228.326C294.713 228.395 301.212 228.83 307.674 229.629C323.55 231.481 339.279 234.733 349.73 235.497C363.355 236.6 377.057 236.148 390.585 234.151C394.351 247.404 396.336 261.118 396.484 274.917C396.318 276.866 395.584 278.719 394.377 280.237L394.325 383.606Z" fill="#2654E5"/>
<path opacity="0.4" d="M394.325 383.606C394.325 383.606 396.432 386.19 396.432 388.322V401.405C396.432 402.815 394.325 404.032 394.325 404.032C394.325 404.032 396.432 405.604 396.432 406.573V415.532C396.432 416.329 394.325 418.008 394.325 418.008C394.325 418.008 396.432 419.602 396.432 420.442V431.005C396.432 431.651 394.325 432.975 394.325 432.975C394.325 432.975 396.432 434.214 396.432 434.849V445.972C396.432 446.639 394.325 448.007 394.325 448.007C394.325 448.007 396.432 449.493 396.432 450.236V460.347C396.432 461.186 394.325 462.877 394.325 462.877C394.325 462.877 396.432 465.138 396.432 465.892V475.453C396.432 476.186 394.325 477.887 394.325 477.887C394.325 477.887 396.432 479.233 396.432 480.041V523.208C396.432 530.67 391.322 544.259 382.683 544.259H294.104C285.466 544.259 280.409 529.593 280.409 522.131V480.041C280.409 479.233 282.516 477.887 282.516 477.887C282.516 477.887 280.409 476.186 280.409 475.453V465.892C280.409 465.138 282.516 462.877 282.516 462.877C282.516 462.877 280.409 461.186 280.409 460.347V450.236C280.409 449.493 282.516 448.007 282.516 448.007C282.516 448.007 280.409 446.639 280.409 445.972V434.849C280.409 434.214 282.516 432.975 282.516 432.975C282.516 432.975 280.409 431.651 280.409 431.005V420.442C280.409 419.602 282.516 418.008 282.516 418.008C282.516 418.008 280.409 416.329 280.409 415.532V406.573C280.409 405.604 282.516 404.032 282.516 404.032C282.516 404.032 280.409 402.815 280.409 401.405V388.322C280.409 386.168 282.516 383.606 282.516 383.606V280.237C281.309 278.719 280.575 276.866 280.409 274.917C280.409 269.727 281.02 249.075 287.783 229.5C287.92 229.101 288.057 228.714 288.205 228.326C294.713 228.395 301.212 228.83 307.674 229.629C323.55 231.481 339.279 234.733 349.73 235.497C363.355 236.6 377.057 236.148 390.585 234.151C394.351 247.404 396.336 261.118 396.484 274.917C396.318 276.866 395.584 278.719 394.377 280.237L394.325 383.606Z" fill="white"/>
<path opacity="0.1" d="M295.621 239.934C292.24 266.713 292.608 278.837 295.063 282.013V380.074C292.543 383.393 291.129 387.449 291.028 391.649V522.207C291.028 534.202 297.17 555.317 314.69 555.317H286.245C276.089 555.317 270.063 532.996 270.063 524.22V480.407C270.063 479.448 272.507 477.876 272.507 477.876C272.507 477.876 270.063 475.873 270.063 475.001V466.29C270.063 465.407 272.507 462.748 272.507 462.748C272.507 462.748 270.063 460.756 270.063 459.765V450.408C270.063 449.525 272.507 447.781 272.507 447.781C272.507 447.781 270.063 446.176 270.063 445.39V434.827C270.063 434.084 272.507 432.674 272.507 432.674C272.507 432.674 270.063 431.113 270.063 430.348V420.453C270.063 419.473 272.507 417.588 272.507 417.588C272.507 417.588 270.063 415.618 270.063 414.681V405.41C270.063 404.258 272.507 402.417 272.507 402.417C272.507 402.417 270.063 400.985 270.063 399.327V383.929C270.063 381.42 272.507 378.383 272.507 378.383V282.013C272.507 282.013 270.063 278.977 270.063 275.747C270.063 268.769 271.001 237.974 282.705 212.551C294.41 187.129 316.955 173.164 316.955 173.164V162.493H313.51V159.112H316.955V157.109H313.51V153.653H316.955V146.341H325.214V173.863C325.214 173.863 300.878 198.22 295.621 239.934Z" fill="black"/>
<path opacity="0.5" d="M387.403 239.934C390.785 266.713 390.416 278.837 387.962 282.013V380.074C390.481 383.393 391.895 387.449 391.996 391.649V520.053C391.996 545.96 379.533 555.317 362.014 555.317H390.458C400.614 555.317 406.64 532.996 406.64 524.22V480.407C406.64 479.448 404.196 477.876 404.196 477.876C404.196 477.876 406.64 475.873 406.64 475.001V466.29C406.64 465.407 404.196 462.748 404.196 462.748C404.196 462.748 406.64 460.756 406.64 459.765V450.408C406.64 449.525 404.196 447.781 404.196 447.781C404.196 447.781 406.64 446.176 406.64 445.39V434.827C406.64 434.084 404.196 432.674 404.196 432.674C404.196 432.674 406.64 431.113 406.64 430.348V420.453C406.64 419.473 404.196 417.588 404.196 417.588C404.196 417.588 406.64 415.618 406.64 414.681V405.41C406.64 404.258 404.196 402.417 404.196 402.417C404.196 402.417 406.64 400.985 406.64 399.327V383.929C406.64 381.42 404.196 378.383 404.196 378.383V282.013C404.196 282.013 406.64 278.977 406.64 275.747C406.64 268.769 405.703 237.974 393.998 212.551C382.294 187.129 359.749 173.164 359.749 173.164V162.493H363.193V159.112H359.749V157.109H363.193V153.653H359.749V146.341H351.489V173.863C351.489 173.863 382.146 198.22 387.403 239.934Z" fill="white"/>
<g opacity="0.1">
<path d="M308.853 402.288C316.797 402.061 324.74 401.943 332.694 401.857C340.648 401.771 348.581 401.792 356.535 401.76L380.376 401.921L392.291 402.094L404.217 402.374L392.291 402.611L380.376 402.74L356.535 402.815L332.694 402.664C324.74 402.611 316.797 402.503 308.853 402.288Z" fill="black"/>
<path d="M272.486 402.374C276.837 401.943 281.178 401.824 285.529 401.803C289.88 401.781 294.22 401.889 298.571 402.309C294.231 402.74 289.88 402.847 285.529 402.88C281.178 402.912 276.837 402.783 272.486 402.374Z" fill="black"/>
<path d="M348.318 417.459C352.974 417.244 357.631 417.147 362.298 417.071C366.965 416.996 371.611 416.996 376.268 416.964C380.924 416.932 385.581 417.028 390.237 417.125L397.232 417.287C399.561 417.384 401.889 417.448 404.217 417.567C401.889 417.685 399.55 417.739 397.222 417.814L390.237 417.954C385.581 418.03 380.924 418.008 376.268 418.041C371.611 418.073 366.955 417.987 362.298 417.89C357.642 417.793 352.974 417.685 348.318 417.459Z" fill="black"/>
<path d="M272.486 417.567C277.975 417.341 283.464 417.222 288.953 417.136C294.441 417.05 299.93 417.028 305.419 416.975C310.908 416.921 316.397 416.975 321.885 417.072L330.113 417.211C332.863 417.298 335.613 417.341 338.352 417.459C335.613 417.588 332.863 417.642 330.124 417.739L321.885 417.901C316.397 417.998 310.908 417.998 305.419 418.051C299.93 418.105 294.441 418.051 288.953 417.954C283.464 417.858 277.975 417.782 272.486 417.567Z" fill="black"/>
<path d="M272.486 432.76C283.464 432.523 294.441 432.394 305.419 432.297L338.352 432.114L371.284 432.286L387.751 432.469L404.217 432.76L387.751 432.997L371.284 433.115L338.352 433.191L305.419 433.115C294.441 433.061 283.464 432.975 272.486 432.76Z" fill="black"/>
<path d="M338.352 447.835C343.841 447.619 349.329 447.533 354.818 447.447C360.307 447.361 365.796 447.393 371.284 447.35C376.773 447.307 382.262 447.415 387.751 447.501L395.979 447.673C398.728 447.759 401.468 447.824 404.217 447.942C401.468 448.061 398.728 448.115 395.979 448.201L387.751 448.33C382.262 448.405 376.773 448.395 371.284 448.427C365.796 448.459 360.307 448.373 354.818 448.276C349.329 448.179 343.841 448.093 338.352 447.835Z" fill="black"/>
<path d="M272.486 447.964C276.258 447.738 280.029 447.63 283.79 447.533C287.552 447.436 291.334 447.404 295.105 447.382C298.877 447.361 302.648 447.382 306.409 447.479L312.067 447.619C313.952 447.705 315.838 447.748 317.724 447.867C315.838 447.996 313.952 448.05 312.067 448.147L306.42 448.308C302.648 448.416 298.877 448.438 295.105 448.459C291.334 448.481 287.562 448.459 283.801 448.351C280.04 448.244 276.258 448.179 272.486 447.964Z" fill="black"/>
<path d="M272.486 463.168C283.464 462.931 294.441 462.802 305.419 462.694L338.352 462.522L371.284 462.694L387.751 462.877L404.217 463.168L387.751 463.405L371.284 463.523L338.352 463.598L305.419 463.523C294.441 463.458 283.464 463.372 272.486 463.168Z" fill="black"/>
<path d="M365.237 478.275C368.482 478.059 371.727 477.962 374.982 477.887C378.238 477.812 381.472 477.79 384.727 477.779C387.983 477.769 391.217 477.779 394.472 477.93L399.339 478.092C400.962 478.178 402.595 478.242 404.217 478.361C402.584 478.479 400.962 478.533 399.339 478.619L394.472 478.759C391.217 478.845 387.972 478.856 384.727 478.856C381.482 478.856 378.227 478.856 374.982 478.705C371.737 478.555 368.482 478.501 365.237 478.275Z" fill="black"/>
<path d="M272.486 478.361C278.807 478.135 285.128 478.016 291.449 477.919C297.771 477.822 304.092 477.822 310.413 477.769C316.734 477.715 323.055 477.769 329.376 477.855L338.857 477.995C342.018 478.081 345.179 478.135 348.339 478.253C342.018 478.479 335.697 478.587 329.376 478.684C323.055 478.781 316.734 478.791 310.413 478.835C304.092 478.878 297.771 478.835 291.449 478.748C285.128 478.662 278.807 478.576 272.486 478.361Z" fill="black"/>
</g>
<path opacity="0.2" d="M379.85 293.244C379.85 293.244 382.768 258.217 378.111 235.53C374.045 215.749 362.214 196.152 360.697 196.981C359.18 197.811 349.487 216.675 349.719 219.303C349.951 221.93 356.725 230.404 359.296 246.642C361.866 262.879 359.296 293.244 359.296 293.244H379.85Z" fill="white"/>
<path opacity="0.4" d="M370.094 293.244C370.094 293.244 373.023 258.217 368.356 235.53C364.289 215.749 352.469 196.152 350.994 196.949C349.519 197.746 348.35 201.784 348.581 204.411C348.813 207.038 358.2 220.11 363.33 246.609C366.417 262.761 363.33 293.212 363.33 293.212L370.094 293.244Z" fill="white"/>
<path opacity="0.2" d="M379.175 463.168C379.175 463.168 382.388 464.675 382.388 466.01V475.41C382.388 476.939 378.912 478.361 378.912 478.361C378.912 478.361 382.388 480.697 382.388 482.312V500.477C382.388 509.695 382.389 518.147 379.618 524.112C376.32 531.208 370.315 536.387 365.838 535.957C360.813 535.451 360.36 531.822 361.329 529.744C364.1 523.779 364.1 509.716 364.1 500.499V482.291C364.1 480.676 360.623 478.339 360.623 478.339C360.623 478.339 364.1 476.918 364.1 475.389V465.989C364.1 464.654 360.886 463.146 360.886 463.146C360.886 463.146 364.1 461.165 364.1 457.935V451.226C364.1 449.611 360.939 447.899 360.939 447.899C360.939 447.899 363.805 446.424 363.805 444.669V435.656C363.805 434.224 361.234 432.792 361.234 432.792C361.234 432.792 363.92 430.466 363.92 428.141V420.862C363.92 419.193 361.118 417.631 361.118 417.631C361.118 417.631 363.868 416.425 363.868 414.046V405.206C363.868 403.601 361.529 402.438 361.529 402.438C362.216 401.983 362.79 401.371 363.205 400.649C363.621 399.928 363.865 399.117 363.92 398.282V384.133C363.92 382.163 361.877 378.05 361.877 378.05V355.018H380.166V378.05C380.166 378.05 382.209 382.163 382.209 384.133V398.217C382.154 399.053 381.91 399.863 381.494 400.584C381.079 401.306 380.505 401.919 379.818 402.374C379.818 402.374 382.146 403.537 382.146 405.141V413.981C382.146 416.361 379.407 417.567 379.407 417.567C379.407 417.567 382.209 419.171 382.209 420.797V428.076C382.209 430.402 379.523 432.728 379.523 432.728C379.523 432.728 382.093 434.16 382.093 435.592V444.604C382.093 446.402 379.228 447.835 379.228 447.835C379.228 447.835 382.388 449.547 382.388 451.162V457.87C382.388 461.186 379.175 463.168 379.175 463.168Z" fill="white"/>
<path opacity="0.3" d="M338.015 240.278C350.235 240.278 348.192 273.959 348.192 311.818C348.192 349.677 351.247 373.613 338.352 373.613C319.589 373.613 323.908 326.042 323.908 309.18C323.908 292.318 322.791 240.278 338.015 240.278Z" fill="white"/>
<path opacity="0.4" d="M368.44 464.244C368.44 464.244 371.653 465.773 371.653 467.087C371.653 468.401 371.516 473.655 371.516 474.883C371.516 476.11 368.177 477.284 368.177 477.284H376.984C376.984 477.284 380.461 476.089 380.461 474.334V467.087C380.461 465.601 377.247 464.244 377.247 464.244H368.44Z" fill="white"/>
<path opacity="0.4" d="M368.44 449.03C368.44 449.03 371.653 450.548 371.653 451.872C371.653 453.197 371.516 458.441 371.516 459.657C371.516 460.874 368.177 462.069 368.177 462.069H376.984C376.984 462.069 380.461 460.874 380.461 459.119V451.872C380.461 450.387 377.247 449.03 377.247 449.03H368.44Z" fill="white"/>
<path opacity="0.4" d="M368.44 433.718C368.44 433.718 371.653 435.247 371.653 436.561C371.653 437.875 371.516 443.129 371.516 444.357C371.516 445.584 368.177 446.758 368.177 446.758H376.984C376.984 446.758 380.461 445.563 380.461 443.808V436.561C380.461 435.075 377.247 433.718 377.247 433.718H368.44Z" fill="white"/>
<path opacity="0.4" d="M368.44 418.417C368.44 418.417 371.653 419.936 371.653 421.26C371.653 422.585 371.516 427.828 371.516 429.045C371.516 430.262 368.177 431.457 368.177 431.457H376.984C376.984 431.457 380.461 430.262 380.461 428.507V421.26C380.461 419.774 377.247 418.417 377.247 418.417H368.44Z" fill="white"/>
<path opacity="0.4" d="M368.44 403.106C368.44 403.106 371.653 404.635 371.653 405.949C371.653 407.262 371.516 412.517 371.516 413.734C371.516 414.95 368.177 416.145 368.177 416.145H376.984C376.984 416.145 380.461 414.95 380.461 413.195V405.949C380.461 404.463 377.247 403.106 377.247 403.106H368.44Z" fill="white"/>
<path opacity="0.1" d="M359.801 146.309V153.362L316.902 157.583V157.055H313.457V153.653H316.902V146.309H359.801Z" fill="black"/>
<path opacity="0.1" d="M272.486 323.296V295.408C274.277 294.331 276.153 293.255 278.112 292.253C281.235 290.653 284.502 289.366 287.868 288.409C291.322 287.437 294.894 286.97 298.476 287.02C299.359 287.002 300.242 287.038 301.121 287.128C301.995 287.203 302.859 287.257 303.786 287.429C304.713 287.602 305.598 287.709 306.483 287.946L309.117 288.668C312.432 289.76 315.581 291.322 318.472 293.309C321.144 295.13 323.66 297.18 325.994 299.435C328.27 301.589 330.398 303.742 332.484 305.896L335.581 309.126C336.635 310.203 337.625 311.28 338.678 312.26C340.722 314.338 342.84 316.308 344.999 318.149C346.621 319.516 348.316 320.789 350.077 321.961C352.051 323.271 354.118 324.426 356.261 325.418C357.231 325.859 358.2 326.247 359.18 326.591C361.481 327.428 363.872 327.985 366.301 328.249C368.406 328.456 370.528 328.409 372.622 328.109C374.561 327.835 376.472 327.385 378.332 326.764C380.413 326.083 382.447 325.263 384.422 324.309C388.699 322.23 393.313 319.291 398.328 316.319C400.193 315.242 402.121 314.112 404.133 313.089V333.353C400.729 336.367 397.05 339.039 393.145 341.332C390.05 343.148 386.73 344.528 383.273 345.435C375.938 347.24 368.211 346.261 361.529 342.678C358.502 341.032 355.673 339.03 353.101 336.713C351.226 335.033 349.54 333.289 347.928 331.544C347.422 331.006 346.927 330.468 346.432 329.918L343.683 326.882L340.385 323.221C336.497 318.924 332.269 314.962 327.743 311.377C323.526 307.975 318.687 305.467 313.51 304.001C311.227 303.418 308.878 303.142 306.525 303.182L304.882 303.322C304.344 303.322 303.828 303.505 303.28 303.57C302.733 303.635 302.227 303.764 301.637 303.882C301.047 304.001 300.531 304.119 299.993 304.281C295.671 305.442 291.586 307.382 287.931 310.009C286.804 310.795 285.697 311.646 284.57 312.561L283.032 313.853C280.767 315.791 278.46 317.945 276.005 320.185C274.867 321.175 273.708 322.23 272.486 323.296Z" fill="black"/>
<path d="M364.879 129.415H311.814V151.725H364.879V129.415Z" fill="#2654E5"/>
<path d="M361.487 125H315.217L311.814 129.415H364.89L361.487 125Z" fill="#2654E5"/>
<path opacity="0.1" d="M361.487 125H315.217L311.814 129.415H364.89L361.487 125Z" fill="black"/>
<g opacity="0.1">
<path d="M314.226 131.213H313.247V149.927H314.226V131.213Z" fill="black"/>
<path d="M316.965 131.213H315.986V149.927H316.965V131.213Z" fill="black"/>
<path d="M319.694 131.213H318.714V149.927H319.694V131.213Z" fill="black"/>
<path d="M322.433 131.213H321.453V149.927H322.433V131.213Z" fill="black"/>
<path d="M325.172 131.213H324.193V149.927H325.172V131.213Z" fill="black"/>
<path d="M327.901 131.213H326.921V149.927H327.901V131.213Z" fill="black"/>
<path d="M330.64 131.213H329.66V149.927H330.64V131.213Z" fill="black"/>
<path d="M333.369 131.213H332.389V149.927H333.369V131.213Z" fill="black"/>
<path d="M336.108 131.213H335.128V149.927H336.108V131.213Z" fill="black"/>
<path d="M338.847 131.213H337.867V149.927H338.847V131.213Z" fill="black"/>
<path d="M341.575 131.213H340.596V149.927H341.575V131.213Z" fill="black"/>
<path d="M344.315 131.213H343.335V149.927H344.315V131.213Z" fill="black"/>
<path d="M347.043 131.213H346.063V149.927H347.043V131.213Z" fill="black"/>
<path d="M349.782 131.213H348.803V149.927H349.782V131.213Z" fill="black"/>
<path d="M352.521 131.213H351.542V149.927H352.521V131.213Z" fill="black"/>
<path d="M355.25 131.213H354.27V149.927H355.25V131.213Z" fill="black"/>
<path d="M357.989 131.213H357.009V149.927H357.989V131.213Z" fill="black"/>
<path d="M360.718 131.213H359.738V149.927H360.718V131.213Z" fill="black"/>
<path d="M363.457 131.213H362.477V149.927H363.457V131.213Z" fill="black"/>
</g>
</g>
<path d="M348.94 62.8978H318.35C317.849 62.8978 317.369 62.6988 317.014 62.3446C316.66 61.9903 316.461 61.5099 316.461 61.009C316.461 60.508 316.66 60.0276 317.014 59.6733C317.369 59.3191 317.849 59.1201 318.35 59.1201H348.94C349.441 59.1201 349.921 59.3191 350.275 59.6733C350.629 60.0276 350.828 60.508 350.828 61.009C350.828 61.5099 350.629 61.9903 350.275 62.3446C349.921 62.6988 349.441 62.8978 348.94 62.8978Z" fill="white"/>
<path d="M478.213 146.695L477.573 146.855C477.591 146.782 477.63 146.715 477.685 146.663L478.213 146.695Z" fill="#263238"/>
<path d="M496.349 196.958H496.333V208.227H496.349V196.958Z" fill="#DD6A57"/>
<path d="M496.637 609.141H496.349V608.933L496.637 609.141Z" fill="#DD6A57"/>
<path d="M562.747 622.795C559.225 621.195 481.751 551.148 480.486 546.602C479.99 544.889 489.546 533.011 501.504 518.973C504.081 515.948 534.206 467.75 534.206 467.75L588.486 510.794L551.574 564.081C551.574 564.081 569.182 604.195 570.078 609.333C570.975 614.472 566.269 624.348 562.747 622.795Z" fill="#DD6A57"/>
<path d="M563.739 592.446C566.21 597.92 568.348 603.538 570.142 609.269C570.975 614.408 566.333 624.348 562.811 622.795C559.289 621.243 481.799 551.148 480.55 546.618C480.15 545.209 486.345 537.125 495.101 526.641C510.756 544.825 560.122 601.426 563.739 596.16C564.072 594.944 564.072 593.661 563.739 592.446Z" fill="#263238"/>
<path d="M506.674 509.929L561.578 555.229C561.578 555.229 637.948 448.894 640.141 410.029C641.742 380.143 597.466 324.454 567.341 276.785C564.428 272.159 566.205 254.615 566.317 251.686L506.626 251.798C505.906 258.521 501.232 292.344 511.284 308.815C531.965 342.687 565.356 391.845 566.637 402.489C567.917 413.134 506.674 509.929 506.674 509.929Z" fill="#37474F"/>
<path d="M565.116 538.582C556.344 531.155 558.969 533.172 550.117 525.776C545.779 522.191 524.058 504.103 519.464 501.413C519.352 501.413 519.24 501.509 519.32 501.589C522.873 505.543 544.931 523.167 549.381 526.689C558.361 533.86 555.864 531.699 564.924 538.774C564.93 538.802 564.944 538.827 564.964 538.848C564.983 538.869 565.008 538.884 565.036 538.892C565.063 538.9 565.092 538.9 565.12 538.893C565.148 538.886 565.173 538.871 565.193 538.851C565.213 538.831 565.228 538.806 565.235 538.778C565.242 538.75 565.242 538.721 565.234 538.694C565.226 538.666 565.211 538.642 565.19 538.622C565.169 538.602 565.144 538.588 565.116 538.582Z" fill="#263238"/>
<path d="M571.919 392.517C569.918 388.611 567.773 384.769 565.516 380.976C561.034 373.308 556.152 365.897 551.35 358.422C546.345 350.61 541.329 342.809 536.303 335.019C531.789 328.008 527.211 321.013 523.289 313.65C519.283 306.44 516.365 298.678 514.63 290.615C512.869 281.747 513.237 272.623 514.005 263.659C514.197 261.418 514.405 259.193 514.614 256.952C514.614 256.568 513.989 256.488 513.941 256.872C512.705 265.645 512.282 274.513 512.677 283.364C513.349 291.495 515.418 299.45 518.791 306.879C522.172 314.258 526.1 321.374 530.541 328.168C535.343 335.739 540.145 343.263 544.947 350.786C549.749 358.31 554.759 366.009 559.546 373.692C561.883 377.422 564.172 381.184 566.349 385.009C568.596 388.758 570.627 392.633 572.431 396.615C573.353 398.598 573.922 400.727 574.112 402.905C574.19 405.156 573.775 407.396 572.896 409.468C571.295 413.582 569.15 417.472 567.197 421.474C563.291 429.365 559.321 437.225 555.224 445.02C546.996 460.659 524.81 497.476 523.642 499.364C523.562 499.509 523.77 499.621 523.866 499.492C533.294 484.43 544.755 466.886 553.239 451.263C557.507 443.462 561.632 435.597 565.612 427.668C567.619 423.72 569.582 419.74 571.503 415.727C573.264 412.078 575.297 408.316 575.409 404.17C575.521 400.024 573.76 396.15 571.919 392.517Z" fill="#263238"/>
<path d="M564.236 251.654C560.394 271.375 549.285 328.104 543.202 359.478C532.766 342.799 520.696 324.262 511.284 308.783C501.232 292.312 505.906 258.489 506.626 251.766L564.236 251.654Z" fill="#263238"/>
<path d="M575.857 662.285C572.191 663.454 467.713 661.981 463.807 659.404C462.302 658.427 461.63 643.205 461.342 624.78C461.342 620.811 462.222 560.16 462.222 560.16L532.109 560.944L528.7 625.533C528.7 625.533 568.462 643.989 572.479 647.286C576.497 650.584 579.522 661.117 575.857 662.285Z" fill="#DD6A57"/>
<path d="M556.552 638.835C562.007 641.336 567.31 644.159 572.431 647.286C576.449 650.584 579.522 661.117 575.857 662.269C572.191 663.422 467.713 661.981 463.807 659.404C462.574 658.62 461.902 648.455 461.55 634.801C485.304 638.114 559.754 648.007 558.985 641.668C558.889 641.076 557.977 640.067 556.552 638.835Z" fill="#263238"/>
<path d="M566.317 251.798C566.317 251.798 554.487 309.424 553.863 311.265C548.092 313.691 542.478 316.476 537.056 319.604L532.83 612.535L457.468 613.031C457.468 613.031 466.816 457.762 466.544 447.773C466.128 431.766 473.059 323.494 472.099 320.773C462.254 292.984 477.701 251.942 477.701 251.942L566.317 251.798Z" fill="#37474F"/>
<path d="M529.996 598.561C508.739 597.648 467.569 598.032 462.366 598.929C462.254 598.929 462.254 599.153 462.366 599.169C467.633 600.017 517.591 600.113 529.996 598.897C530.032 598.886 530.063 598.863 530.086 598.833C530.108 598.803 530.12 598.766 530.12 598.729C530.12 598.691 530.108 598.655 530.086 598.624C530.063 598.594 530.032 598.572 529.996 598.561Z" fill="#263238"/>
<path d="M474.516 523.999C475.716 501.974 477.013 479.948 478.277 457.922C479.542 435.896 480.79 413.854 482.055 391.829C482.679 380.816 483.272 369.803 483.944 358.79L484.952 342.27C485.498 336.835 485.734 331.373 485.657 325.911C485.352 319.956 482.743 314.706 481.255 309.024C479.916 303.615 479.265 298.06 479.318 292.488C479.318 280.995 481.639 269.63 483.832 258.409C483.96 257.785 484.92 258.057 484.792 258.681C482.242 268.971 480.693 279.483 480.166 290.071C480.002 295.351 480.458 300.633 481.527 305.806C482.599 310.768 484.728 315.41 486.009 320.213C487.289 325.015 486.729 330.521 486.409 335.675C486.073 341.182 485.801 346.688 485.513 352.195C484.92 362.984 484.28 373.772 483.672 384.577C481.159 428.405 478.726 472.248 476.052 516.076C474.516 540.743 473.347 565.394 471.314 590.093C471.314 590.269 471.01 590.269 471.026 590.093C471.858 568.051 473.299 546.025 474.516 523.999Z" fill="#263238"/>
<path d="M485.849 286.309C487.113 285.797 488.522 285.637 489.818 285.237C491.194 284.829 492.541 284.332 493.852 283.748C496.342 282.62 498.668 281.16 500.767 279.41C502.777 277.592 504.297 275.296 505.185 272.735C505.73 271.375 506.242 269.998 506.786 268.622C507.042 267.949 507.314 267.261 507.586 266.589C507.682 266.317 508.387 264.876 508.499 264.428C508.475 264.45 508.443 264.463 508.411 264.463C508.378 264.463 508.346 264.45 508.323 264.428H508.243C508.223 264.402 508.213 264.371 508.213 264.34C508.213 264.308 508.223 264.277 508.243 264.252C508.323 264.092 508.339 264.076 508.515 264.027C508.551 264.019 508.589 264.022 508.624 264.036C508.658 264.05 508.687 264.076 508.707 264.108C508.979 264.556 508.707 264.988 508.611 265.468C508.403 266.381 508.195 267.277 507.97 268.173C507.57 269.774 507.202 271.375 506.754 272.879C506.039 275.803 504.507 278.462 502.336 280.547C500.067 282.542 497.452 284.104 494.621 285.157C493.172 285.72 491.678 286.159 490.155 286.47C488.755 286.831 487.302 286.939 485.865 286.79C485.593 286.694 485.721 286.389 485.849 286.309Z" fill="#263238"/>
<path d="M546.724 302.108C546.852 299.467 547.012 296.842 547.204 294.201C547.62 288.182 548.148 282.148 549.093 276.209C549.173 275.729 549.829 275.905 549.797 276.337C549.477 281.011 549.013 285.685 548.661 290.343C548.309 295.001 547.828 299.659 547.828 304.301C547.828 305.694 547.956 308.063 549.685 308.431C551.99 308.912 553.031 305.854 553.559 304.189C554.813 300.005 555.707 295.721 556.232 291.384C556.904 286.47 557.225 281.507 557.609 276.577C557.609 276.401 557.913 276.417 557.929 276.577C558.121 286.357 558.153 296.586 554.727 305.886C554.481 306.841 553.98 307.712 553.278 308.405C552.576 309.099 551.7 309.589 550.742 309.824H550.646C550.646 309.824 550.646 309.936 550.646 309.984C550.646 310.032 550.534 310.544 550.502 310.816C550.469 311.088 550.421 311.265 550.373 311.505C550.325 311.745 550.229 312.449 550.117 312.929C550.1 313.012 550.054 313.086 549.989 313.139C549.923 313.192 549.842 313.221 549.757 313.221C549.673 313.221 549.591 313.192 549.525 313.139C549.46 313.086 549.415 313.012 549.397 312.929C549.338 312.907 549.286 312.868 549.249 312.817C549.212 312.765 549.191 312.704 549.189 312.641C549.218 311.685 549.419 310.741 549.781 309.856C549.214 309.751 548.682 309.506 548.235 309.142C547.787 308.779 547.438 308.309 547.22 307.775C546.61 305.952 546.44 304.01 546.724 302.108Z" fill="#263238"/>
<path d="M553.927 310.704C546.488 313.959 539.349 317.858 532.589 322.357C532.317 322.534 532.59 322.95 532.814 322.79C540.017 319.14 547.38 315.618 554.375 311.585C554.492 311.525 554.58 311.422 554.621 311.297C554.661 311.173 554.651 311.037 554.591 310.92C554.532 310.804 554.428 310.715 554.304 310.675C554.179 310.634 554.044 310.645 553.927 310.704Z" fill="#263238"/>
<path d="M534.927 464.389C534.927 463.685 535.151 463.412 535.183 464.277C535.359 469.079 535.295 476.106 535.343 480.972C535.343 486.703 535.343 492.417 535.343 498.132C535.343 503.846 535.135 509.577 534.911 515.308L534.558 523.871C534.446 525.856 534.558 529.762 534.366 531.731C534.366 532.611 534.094 532.771 534.014 531.891C533.87 529.026 533.87 526.737 533.774 523.887L533.678 515.292C533.678 509.577 533.678 503.846 533.678 498.132C533.678 492.417 533.886 486.687 534.11 480.972C534.334 475.258 534.51 470.103 534.927 464.389Z" fill="#263238"/>
<path d="M572.527 170.514C572.558 170.72 572.511 170.931 572.396 171.105C572.281 171.28 572.105 171.405 571.903 171.458L568.526 171.778C565.148 163.391 561.594 156.748 562.555 159.357C564.027 163.448 564.917 167.727 565.196 172.066L558.521 172.579C555.32 157.74 551.446 146.791 551.798 150.169C553.207 163.887 552.63 168.321 551.942 173.059C535.823 174.243 514.678 175.524 499.375 176.116C497.262 167.937 495.357 159.053 495.101 159.693C493.212 164.383 492.924 171.138 493.084 176.34C488.202 176.484 484.312 176.516 481.879 176.34C481.879 176.34 480.454 169.441 480.198 167.168C479.517 161.365 479.853 155.488 481.191 149.801C482.78 144.185 484.924 138.743 487.593 133.553V133.441C489.221 129.981 490.445 126.344 491.243 122.604C491.246 122.578 491.246 122.551 491.243 122.524C491.785 119.797 492.096 117.028 492.172 114.249C492.46 104.068 497.454 95.1682 506.274 92.2709C522.425 74.8871 539.617 81.6421 545.251 94.5439C545.795 95.8085 546.34 97.2491 546.852 98.8338C548.821 104.66 550.678 112.248 552.342 118.042C552.969 120.336 553.728 122.592 554.615 124.797C559.546 135.554 569.534 141.349 572.527 170.514Z" fill="#263238"/>
<path d="M502.656 95.2002C499.817 96.7517 497.428 99.0121 495.723 101.761C494.017 104.51 493.053 107.655 492.924 110.887C492.836 115.172 492.223 119.429 491.099 123.565C489.56 127.587 487.44 131.362 484.808 134.77C480.704 140.066 478.289 146.475 477.877 153.162C477.541 160.573 478.229 169.297 480.838 176.132C478.719 168.315 478.121 160.164 479.078 152.122C480.022 144.118 484.072 138.884 488.17 132.673C491.487 127.736 493.462 122.021 493.9 116.09C494.188 112.424 493.98 108.598 495.229 105.125C496.702 100.963 499.871 98.2576 503.04 95.8565C503.521 95.6004 503.088 94.9281 502.656 95.2002Z" fill="#263238"/>
<path d="M565.148 136.194C560.778 130.528 556.264 125.71 553.543 118.587C551.078 112.184 549.525 105.285 547.012 98.8338C547.012 98.7218 546.836 98.8338 546.868 98.8338C550.806 110.295 551.958 121.948 559.337 131.488C563.339 136.675 567.341 141.477 570.094 147.752C572.917 154.348 574.543 161.394 574.896 168.561C574.888 168.587 574.886 168.615 574.891 168.642C574.895 168.67 574.906 168.695 574.923 168.718C574.939 168.74 574.96 168.758 574.985 168.771C575.01 168.783 575.037 168.789 575.064 168.789C575.092 168.789 575.119 168.783 575.144 168.771C575.169 168.758 575.19 168.74 575.206 168.718C575.223 168.695 575.234 168.67 575.238 168.642C575.243 168.615 575.241 168.587 575.233 168.561C575.775 156.923 572.205 145.465 565.148 136.194Z" fill="#263238"/>
<path d="M604.061 104.756L593.705 152.202C593.241 153.61 593.961 154.699 595.305 154.667L619.588 153.898C620.33 153.816 621.033 153.526 621.616 153.062C622.2 152.597 622.64 151.977 622.886 151.273L633.258 103.844C633.707 102.435 632.986 101.347 631.658 101.379L607.375 102.147C606.633 102.225 605.928 102.511 605.341 102.973C604.755 103.435 604.311 104.053 604.061 104.756Z" fill="#37474F"/>
<path d="M606.943 104.644L596.586 152.09C596.122 153.482 596.842 154.587 598.187 154.539L622.486 153.77C623.223 153.689 623.922 153.4 624.502 152.939C625.083 152.477 625.521 151.861 625.767 151.161L636.188 103.716C636.636 102.323 635.916 101.219 634.587 101.267L610.304 102.035C609.553 102.104 608.838 102.387 608.242 102.849C607.647 103.311 607.196 103.934 606.943 104.644Z" fill="#455A64"/>
<path d="M613.666 106.581C613.67 106.852 613.621 107.122 613.521 107.374C613.421 107.626 613.272 107.856 613.084 108.051C612.895 108.246 612.67 108.401 612.421 108.509C612.172 108.616 611.904 108.674 611.633 108.678C611.085 108.678 610.56 108.461 610.173 108.073C609.785 107.686 609.568 107.161 609.568 106.613C609.568 106.066 609.785 105.54 610.173 105.153C610.56 104.766 611.085 104.548 611.633 104.548C612.171 104.553 612.685 104.768 613.066 105.148C613.446 105.529 613.662 106.043 613.666 106.581Z" fill="#263238"/>
<path d="M528.043 178.517C542.45 207.474 574.192 244.787 586.966 244.675C593.048 244.675 603.917 245.811 611.745 238.656C628.792 223.017 642.671 193.548 645.248 176.805C646.16 170.834 617.011 158.653 612.865 163.583C603.133 175.124 592.056 197.582 590.279 197.486C583.732 197.23 557.753 176.42 539.489 161.87C517.415 144.166 522.297 166.976 528.043 178.517Z" fill="#DD6A57"/>
<path d="M645.264 146.119C641.934 134.146 639.245 131.584 641.79 119.979C643.471 112.376 639.325 108.038 634.107 114.233C625.559 124.365 626.615 140.724 628.6 146.247L645.264 146.119Z" fill="#DD6A57"/>
<path d="M643.951 181.991C643.951 181.991 648.945 165.087 646.656 151.978C645.056 142.917 639.437 123.565 613.73 113.881C607.631 111.575 597.322 112.632 605.918 119.995C612.017 125.23 617.475 126.702 620.469 130.4C620.469 130.4 607.503 133.297 605.438 139.492C603.636 144.913 602.219 150.455 601.196 156.075C602.186 156.497 603.202 156.855 604.238 157.148C604.238 157.148 602.861 163.118 607.359 171.282L643.951 181.991Z" fill="#DD6A57"/>
<path d="M643.775 143.558C640.029 140.532 631.962 134.226 623.59 131.36C614.274 128.159 595.482 124.573 593.177 131.472C591.576 136.531 598.571 138.532 598.571 138.532C598.571 138.532 590.567 138.676 589.975 143.574C589.511 148.04 595.065 149.272 595.065 149.272C595.065 149.272 590.167 150.201 590.551 154.587C591.016 159.853 601.18 157.052 606.254 161.982C607.375 163.102 643.775 143.558 643.775 143.558Z" fill="#DD6A57"/>
<path d="M621.861 141.765C614.678 138.318 606.614 137.145 598.747 138.403C598.555 138.403 598.475 138.612 598.667 138.612C606.494 138.743 614.276 139.818 621.845 141.813C621.845 141.813 621.909 141.797 621.861 141.765Z" fill="#263238"/>
<path d="M618.388 151.065C614.738 149.464 603.885 146.999 595.097 149.096C594.905 149.096 594.841 149.32 595.097 149.304C602.917 149.037 610.741 149.66 618.42 151.161C618.42 151.161 618.436 151.081 618.388 151.065Z" fill="#263238"/>
<path d="M541.297 204.785L565.308 179.638C565.308 179.638 547.38 163.263 534.222 156.876C521.064 150.489 518.903 159.037 524.362 172.211C529.82 185.384 541.297 204.785 541.297 204.785Z" fill="#1171C1"/>
<path opacity="0.1" d="M541.297 204.785L565.308 179.638C565.308 179.638 547.38 163.263 534.222 156.876C521.064 150.489 518.903 159.037 524.362 172.211C529.82 185.384 541.297 204.785 541.297 204.785Z" fill="black"/>
<path d="M563.483 229.852L574.768 282.788C574.768 282.788 487.754 289.799 466.032 289.703C466.032 289.703 477.093 188.618 498.686 161.854C509.491 148.456 523.209 148.504 532.477 156.764C534.831 158.861 563.387 191.851 567.021 204.929C570.206 216.438 563.483 229.852 563.483 229.852Z" fill="#EBEBEB"/>
<path d="M522.873 151.625H513.637C516.672 150.889 519.839 150.889 522.873 151.625Z" fill="#1171C1"/>
<path d="M532.381 156.684H503.761C504.161 156.347 504.577 156.027 504.993 155.739H531.245C531.629 156.043 532.013 156.347 532.381 156.684Z" fill="#1171C1"/>
<path d="M536.943 161.742H498.782L499.567 160.797H536.159L536.943 161.742Z" fill="#1171C1"/>
<path d="M541.265 166.816H495.325C495.501 166.496 495.693 166.176 495.901 165.872H540.497L541.265 166.816Z" fill="#1171C1"/>
<path d="M545.411 171.858H492.588C492.732 171.538 492.892 171.218 493.052 170.914H544.659L545.411 171.858Z" fill="#1171C1"/>
<path d="M549.413 176.917H490.187C490.331 176.597 490.459 176.276 490.587 175.972H548.597L549.413 176.917Z" fill="#1171C1"/>
<path d="M553.271 181.975H488.266L488.618 181.014H552.55L553.271 181.975Z" fill="#1171C1"/>
<path d="M556.936 187.033H486.505C486.617 186.697 486.713 186.393 486.825 186.073H556.296L556.936 187.033Z" fill="#1171C1"/>
<path d="M560.378 192.091H484.792L485.112 191.131H559.738L560.378 192.091Z" fill="#1171C1"/>
<path d="M563.467 197.23H483.288C483.288 196.894 483.464 196.589 483.56 196.269H562.907C563.115 196.509 563.291 196.83 563.467 197.23Z" fill="#1171C1"/>
<path d="M566.044 202.208H481.863C481.943 201.888 482.039 201.568 482.119 201.247H565.612C565.772 201.568 565.916 201.888 566.044 202.208Z" fill="#1171C1"/>
<path d="M567.533 207.25H480.534L480.774 206.306H567.357C567.357 206.626 567.485 206.93 567.533 207.25Z" fill="#1171C1"/>
<path d="M567.885 211.364C567.885 211.684 567.885 212.004 567.885 212.308H479.318C479.318 211.988 479.478 211.668 479.542 211.364H567.885Z" fill="#1171C1"/>
<path d="M567.549 216.438C567.549 216.758 567.453 217.079 567.389 217.383H478.117C478.117 217.079 478.245 216.758 478.325 216.438H567.549Z" fill="#1171C1"/>
<path d="M566.509 221.481C566.429 221.801 566.349 222.121 566.253 222.425H476.981C476.981 222.105 477.125 221.801 477.189 221.481H566.509Z" fill="#1171C1"/>
<path d="M564.892 226.539L564.524 227.483H475.924C475.924 227.163 476.036 226.859 476.116 226.539H564.892Z" fill="#1171C1"/>
<path d="M564.06 232.541H474.9C474.9 232.221 475.012 231.917 475.092 231.597H563.851L564.06 232.541Z" fill="#1171C1"/>
<path d="M565.132 237.6H473.891C473.891 237.28 474.003 236.975 474.067 236.655H564.908L565.132 237.6Z" fill="#1171C1"/>
<path d="M566.221 242.658H472.995C472.995 242.338 473.107 242.018 473.155 241.698H565.996L566.221 242.658Z" fill="#1171C1"/>
<path d="M567.357 247.716H472.099C472.099 247.396 472.211 247.076 472.259 246.756H567.085L567.357 247.716Z" fill="#1171C1"/>
<path d="M568.366 252.774H471.314C471.314 252.454 471.41 252.134 471.474 251.814H568.157L568.366 252.774Z" fill="#1171C1"/>
<path d="M569.454 257.833H470.434L470.578 256.872H569.246L569.454 257.833Z" fill="#1171C1"/>
<path d="M570.558 262.859H469.714C469.714 262.539 469.826 262.219 469.874 261.899H570.398L570.558 262.859Z" fill="#1171C1"/>
<path d="M571.599 267.933H468.881L469.025 266.989H571.471L571.599 267.933Z" fill="#1171C1"/>
<path d="M572.687 272.991H468.113L468.257 272.047H572.479L572.687 272.991Z" fill="#1171C1"/>
<path d="M573.76 278.05H467.472C467.472 277.746 467.568 277.425 467.601 277.105H573.552L573.76 278.05Z" fill="#1171C1"/>
<path d="M574.768 282.788L570.799 283.108H466.832C466.832 282.804 466.832 282.5 466.944 282.164H574.64L574.768 282.788Z" fill="#1171C1"/>
<path d="M514.998 287.222C510.067 287.558 505.169 287.878 500.447 288.166H466.208C466.208 287.894 466.208 287.574 466.32 287.222H514.998Z" fill="#1171C1"/>
<path d="M566.541 220.824C567.242 217.674 567.469 214.437 567.213 211.22C566.396 204.741 564.172 198.518 560.698 192.988C558.825 189.786 556.584 186.841 554.727 183.656C554.721 183.647 554.717 183.638 554.714 183.628C554.711 183.617 554.711 183.607 554.712 183.596C554.714 183.586 554.717 183.576 554.723 183.567C554.728 183.558 554.735 183.55 554.743 183.544C554.752 183.537 554.761 183.533 554.772 183.53C554.782 183.527 554.792 183.527 554.803 183.528C554.813 183.53 554.823 183.533 554.832 183.539C554.841 183.544 554.849 183.551 554.856 183.56C556.587 185.638 558.19 187.819 559.658 190.091C559.63 190.011 559.592 189.936 559.546 189.866C559.033 188.618 558.505 187.385 557.945 186.169C557.945 186.041 558.105 185.929 558.169 186.057C558.809 187.241 559.418 188.426 559.994 189.626C560.346 190.411 560.65 191.227 560.922 191.995C562.763 194.77 564.369 197.694 565.724 200.735C568.557 206.719 569.35 213.466 567.981 219.944C567.054 223.446 565.579 226.779 563.611 229.82C563.593 229.843 563.567 229.859 563.539 229.866C563.51 229.872 563.48 229.868 563.454 229.855C563.428 229.842 563.407 229.82 563.395 229.793C563.382 229.767 563.38 229.737 563.387 229.708C564.749 226.839 565.821 223.842 566.589 220.76" fill="#263238"/>
<path d="M512.212 157.804C512.869 159.405 522.665 169.201 530.365 167.633C532.862 167.12 530.669 153.322 530.669 153.322V152.266L531.661 137.491L513.205 129.327L510.564 128.271C510.564 128.271 510.564 132.337 510.564 137.395V138.996C510.564 139.748 510.564 140.596 510.564 141.301C510.564 142.005 510.564 142.453 510.564 143.062C510.564 143.67 510.564 144.278 510.564 144.886C510.813 149.225 511.364 153.542 512.212 157.804Z" fill="#DD6A57"/>
<path d="M510.676 137.395C512.741 141.179 515.605 144.469 519.068 147.037C522.531 149.605 526.512 151.389 530.733 152.266L531.725 137.491L513.269 129.327L510.628 128.271C510.628 128.271 510.628 132.337 510.676 137.395Z" fill="#263238"/>
<path d="M549.925 115.305C552.63 141.157 537.456 145.719 531.885 146.263C526.827 146.791 509.475 147.864 504.161 122.508C498.846 97.1531 509.955 87.6448 521.481 85.836C533.006 84.0272 547.22 89.4536 549.925 115.305Z" fill="#DD6A57"/>
<path d="M544.179 109.735C543.584 109.708 542.991 109.649 542.402 109.559C541.76 109.583 541.129 109.392 540.609 109.014C540.47 108.866 540.384 108.676 540.364 108.473C540.344 108.271 540.39 108.067 540.497 107.894C540.76 107.58 541.102 107.344 541.488 107.208C541.874 107.073 542.289 107.044 542.69 107.126C543.524 107.162 544.316 107.504 544.915 108.086C545.048 108.226 545.137 108.403 545.17 108.593C545.202 108.784 545.178 108.98 545.099 109.157C545.02 109.333 544.89 109.483 544.727 109.586C544.563 109.688 544.372 109.74 544.179 109.735Z" fill="#263238"/>
<path d="M527.163 111.704C527.744 111.556 528.316 111.374 528.876 111.159C529.494 111.045 530.056 110.73 530.477 110.263C530.586 110.091 530.634 109.886 530.614 109.683C530.594 109.48 530.506 109.29 530.365 109.142C530.04 108.895 529.657 108.737 529.253 108.683C528.848 108.63 528.437 108.683 528.06 108.838C527.248 109.049 526.542 109.55 526.075 110.247C525.971 110.414 525.92 110.608 525.929 110.804C525.937 111 526.004 111.189 526.122 111.347C526.239 111.504 526.402 111.622 526.587 111.686C526.773 111.749 526.974 111.756 527.163 111.704Z" fill="#263238"/>
<path d="M531.725 117.866C531.725 117.866 531.597 117.962 531.613 118.042C531.885 119.787 531.917 121.836 530.413 122.62C530.413 122.62 530.413 122.732 530.413 122.716C532.333 122.204 532.269 119.483 531.725 117.866Z" fill="#263238"/>
<path d="M529.916 116.234C527.067 116.394 527.579 122.076 530.22 121.932C532.862 121.788 532.317 116.106 529.916 116.234Z" fill="#263238"/>
<path d="M528.828 116.634C528.364 117.002 527.931 117.61 527.339 117.738C526.747 117.866 526.075 117.306 525.562 116.778C525.562 116.778 525.466 116.778 525.466 116.858C525.546 117.946 526.075 119.035 527.259 119.083C528.444 119.131 529.02 118.106 529.196 116.986C529.228 116.778 529.02 116.49 528.828 116.634Z" fill="#263238"/>
<path d="M541.457 116.538C541.457 116.538 541.602 116.538 541.602 116.682C541.698 118.459 542.098 120.459 543.73 120.924V121.02C541.746 120.908 541.249 118.234 541.457 116.538Z" fill="#263238"/>
<path d="M542.882 114.569C545.699 114.121 546.388 119.803 543.779 120.203C541.169 120.604 540.513 114.953 542.882 114.569Z" fill="#263238"/>
<path d="M544.115 114.809C544.595 115.049 545.107 115.545 545.635 115.513C546.164 115.481 546.66 114.809 546.98 114.169C546.98 114.169 547.06 114.169 547.076 114.169C547.236 115.257 547.076 116.426 546.003 116.762C544.931 117.098 544.259 116.218 543.875 115.161C543.794 115.033 543.907 114.697 544.115 114.809Z" fill="#263238"/>
<path d="M533.15 131.953C533.598 132.337 534.046 132.897 534.751 132.913C535.407 132.881 536.047 132.7 536.623 132.385C536.623 132.385 536.735 132.385 536.703 132.481C536.468 132.839 536.139 133.126 535.753 133.312C535.367 133.498 534.937 133.576 534.51 133.537C534.146 133.458 533.814 133.273 533.554 133.005C533.295 132.738 533.121 132.399 533.054 132.033C532.958 131.937 533.086 131.889 533.15 131.953Z" fill="#263238"/>
<path d="M539.873 124.829C539.873 124.829 540.497 127.423 540.625 128.671C540.625 128.783 540.337 128.863 539.921 128.943C538.877 129.245 537.77 129.256 536.72 128.974C535.67 128.691 534.718 128.127 533.966 127.343C533.87 127.23 533.966 127.086 534.142 127.15C535.835 128.065 537.776 128.413 539.681 128.143C539.681 127.791 538.448 123.741 538.64 123.709C539.612 123.692 540.582 123.811 541.521 124.061C540.369 118.619 538.32 113.416 537.28 108.054C537.277 108.016 537.287 107.977 537.309 107.945C537.33 107.913 537.361 107.889 537.397 107.876C537.433 107.864 537.473 107.863 537.509 107.875C537.546 107.887 537.578 107.91 537.6 107.942C539.931 113.462 541.711 119.199 542.914 125.07C543.026 125.662 540.385 124.989 539.873 124.829Z" fill="#263238"/>
<path d="M539.617 128.639C539.02 129.681 538.165 130.552 537.136 131.168C536.56 131.487 535.901 131.621 535.247 131.552C533.822 131.376 533.646 130.128 533.726 129.007C533.785 128.418 533.914 127.837 534.11 127.279C535.753 128.309 537.683 128.786 539.617 128.639Z" fill="#263238"/>
<path d="M537.136 131.168C536.56 131.487 535.901 131.621 535.247 131.552C533.822 131.376 533.646 130.128 533.726 129.007C534.454 128.936 535.185 129.11 535.802 129.501C536.42 129.893 536.889 130.48 537.136 131.168Z" fill="#FF9ABB"/>
<path d="M506.13 121.404C510.932 122.188 512.533 111.351 512.533 111.351C512.533 111.351 532.926 108.742 535.295 92.3349C537.583 99.1444 542.404 104.813 548.757 108.166C548.757 108.166 548.757 90.0619 534.59 85.9801C534.59 85.9801 517.079 78.7769 506.514 92.495C495.949 106.213 502.96 120.876 506.13 121.404Z" fill="#263238"/>
<path d="M535.343 91.1184C535.475 93.6736 535.06 96.2275 534.126 98.6097C533.226 101.033 531.837 103.246 530.044 105.109C529.593 105.571 529.117 106.009 528.62 106.421L527.899 107.061L527.099 107.606C526.555 107.958 526.027 108.326 525.498 108.646C524.97 108.966 524.346 109.222 523.77 109.495C523.481 109.623 523.193 109.783 522.905 109.895L521.993 110.215L520.184 110.823C518.951 111.111 517.703 111.335 516.454 111.543C517.639 111.079 518.855 110.759 520.008 110.295L521.721 109.543L522.569 109.174L523.369 108.71C523.914 108.39 524.442 108.086 524.97 107.798C525.498 107.51 525.963 107.077 526.459 106.725L527.211 106.181L527.883 105.573C528.353 105.18 528.797 104.758 529.212 104.308C531.78 101.607 533.629 98.3048 534.59 94.704C534.942 93.5323 535.194 92.3327 535.343 91.1184Z" fill="#263238"/>
<path d="M509.059 123.597C509.059 123.597 503.248 115.593 499.599 117.674C495.949 119.755 500.431 131.44 504.785 132.977C505.329 133.21 505.915 133.331 506.507 133.333C507.099 133.335 507.685 133.217 508.231 132.987C508.776 132.757 509.269 132.419 509.681 131.994C510.093 131.568 510.415 131.064 510.628 130.512L509.059 123.597Z" fill="#DD6A57"/>
<path d="M500.959 121.052V121.164C504.017 122.348 505.666 125.118 506.834 128.015C506.651 127.715 506.406 127.458 506.114 127.262C505.823 127.065 505.492 126.935 505.146 126.878C504.799 126.822 504.444 126.842 504.105 126.936C503.767 127.03 503.453 127.196 503.184 127.423C503.184 127.423 503.184 127.599 503.264 127.583C503.793 127.4 504.365 127.387 504.902 127.544C505.438 127.702 505.912 128.023 506.258 128.463C506.827 129.207 507.32 130.006 507.73 130.848C507.875 131.12 508.371 130.96 508.259 130.656C508.227 126.798 505.121 121.372 500.959 121.052Z" fill="#263238"/>
<path d="M508.547 92.2069C510.868 91.3425 513.077 78.3607 504.545 72.1659C496.013 65.9712 485.08 73.0463 489.658 83.6911C492.556 90.4141 503.633 94.0317 508.547 92.2069Z" fill="#263238"/>
<path d="M492.604 71.4136C490.082 73.5209 488.349 76.4216 487.69 79.6413C487.349 81.1391 487.41 82.7001 487.865 84.167C488.321 85.6339 489.154 86.9549 490.283 87.997C492.673 90.1271 495.602 91.561 498.751 92.1428C500.355 92.4978 501.99 92.7015 503.633 92.7511C505.29 92.8664 506.955 92.682 508.547 92.2069C507.044 93.0381 505.378 93.5298 503.665 93.6475C501.95 93.8289 500.219 93.802 498.51 93.5675C494.977 93.1883 491.651 91.7103 489.002 89.3416C487.659 88.0724 486.685 86.4625 486.185 84.6835C485.752 82.9125 485.785 81.0595 486.281 79.3051C486.744 77.6294 487.543 76.0656 488.63 74.7088C489.717 73.3521 491.069 72.2309 492.604 71.4136Z" fill="#263238"/>
<path d="M497.086 163.903C475.668 196.125 463.567 239.024 465.071 248.469C466.8 258.857 481.463 293.977 496.573 309.456C500.559 313.538 530.749 280.051 526.667 275.521C518.807 266.781 503.2 241.025 502.512 235.151C501.872 229.724 509.779 194.813 511.86 174.964C513.941 155.899 507.042 148.904 497.086 163.903Z" fill="#DD6A57"/>
<path d="M525.738 274.448C525.738 274.448 542.13 281.651 552.63 286.87C558.489 289.783 568.093 295.674 571.423 299.787C576.385 305.918 593.273 334.795 586.358 339.037C580.099 342.879 568.75 316.243 568.75 316.243C568.75 316.243 582.58 342.11 574.192 345.36C565.804 348.609 556.984 316.771 556.984 316.771C556.984 316.771 570.606 343.679 561.434 345.584C554.551 347.153 544.947 318.788 544.947 318.788C544.947 318.788 556.488 341.998 549.429 343.839C541.618 345.872 531.101 320.245 531.101 320.245C512.357 321.845 502.752 315.01 496.509 309.312C494.973 307.935 525.738 274.448 525.738 274.448Z" fill="#DD6A57"/>
<path d="M564.588 306.975C566.317 309.952 568.093 312.961 569.566 316.083C571.039 319.204 572.383 322.39 573.552 325.687C575.158 329.899 576.275 334.282 576.881 338.749C575.281 330.905 570.158 319.636 568.686 316.515C567.213 313.394 565.916 310.112 564.46 307.071C564.428 306.959 564.54 306.911 564.588 306.975Z" fill="#263238"/>
<path d="M553.207 312.065C555.256 315.955 557.433 319.764 559.321 323.75C561.21 327.736 562.523 331.658 564.124 335.755C564.236 336.076 564.028 336.028 563.9 335.755C562.139 331.722 560.218 328.136 558.409 324.134C556.6 320.133 554.968 316.131 553.031 312.129C553.079 312.033 553.175 312.001 553.207 312.065Z" fill="#263238"/>
<path d="M542.658 314.658C545.952 320.57 548.634 326.802 550.662 333.258C550.774 333.579 550.502 333.498 550.373 333.258C547.844 327.032 545.891 322.053 542.482 314.866C542.402 314.674 542.578 314.546 542.658 314.658Z" fill="#263238"/>
<path d="M476.5 196.958L510.628 203.537C510.628 203.537 514.71 179.606 512.965 165.119C511.22 150.633 502.864 153.418 494.749 165.119C486.633 176.821 476.5 196.958 476.5 196.958Z" fill="#1171C1"/>
<path opacity="0.1" d="M476.5 196.958L510.628 203.537C510.628 203.537 514.71 179.606 512.965 165.119C511.22 150.633 502.864 153.418 494.749 165.119C486.633 176.821 476.5 196.958 476.5 196.958Z" fill="black"/>
<path d="M128.121 489.28C126.264 497.171 124.295 504.935 123.911 513.035C124.135 513.435 124.087 514.907 123.911 514.507C123.911 515.82 121.878 515.58 121.878 514.283C121.878 513.451 121.878 512.602 121.878 511.802C117.236 506.023 110.497 502.374 105.055 497.396C100.675 493.457 97.4813 488.373 95.8347 482.717C91.3207 467.142 95.5466 450.703 90.1202 435.096C85.4301 421.714 77.0263 410.061 69.9192 397.927C62.4118 385.121 56.8734 371.611 56.3131 356.581C55.8809 345.072 57.2415 329.737 66.0134 321.125C75.2976 311.969 86.8227 318.82 93.9459 326.984C114.563 350.658 124.103 380.575 127.961 411.165C130.09 428.101 132.299 445.132 131.787 462.212C131.465 471.334 130.237 480.401 128.121 489.28Z" fill="#005B8E"/>
<path d="M123.959 519.261C125.088 503.266 124.901 487.205 123.399 471.24C123.402 471.187 123.402 471.133 123.399 471.08C123.655 458.114 124.68 445.196 124.167 432.214C123.54 418.197 121.632 404.266 118.469 390.596C118.469 390.436 118.181 390.484 118.213 390.596C120.74 404.048 122.249 417.671 122.727 431.35C122.983 438.681 122.924 446.007 122.551 453.328C122.423 455.713 122.199 458.13 122.038 460.515C116.654 424.115 103.497 389.301 83.4612 358.438C83.2051 358.021 82.4528 358.438 82.7089 358.902C97.018 382.358 107.612 407.888 114.115 434.584C104.19 416.207 89.2078 401.097 78.0988 383.441C78.0988 383.345 77.8747 383.441 77.9227 383.537C87.9112 403.21 104.415 418.752 114.931 438.073C116.74 445.965 118.245 453.936 119.349 461.956C120.836 472.951 121.638 484.028 121.75 495.123C115.7 483.838 109.425 473.033 104.495 461.091C104.481 461.06 104.461 461.031 104.437 461.007C104.412 460.983 104.383 460.965 104.351 460.952C104.319 460.939 104.285 460.933 104.25 460.934C104.216 460.934 104.182 460.942 104.15 460.955C104.119 460.969 104.09 460.989 104.066 461.013C104.043 461.038 104.024 461.067 104.011 461.099C103.999 461.131 103.992 461.165 103.993 461.2C103.993 461.234 104.001 461.268 104.014 461.299C108.208 473.705 113.859 487.071 121.782 497.652C121.782 505.506 121.564 513.36 121.126 521.214C119.893 542.151 116.324 562.833 114.723 583.642C114.708 583.769 114.745 583.897 114.824 583.998C114.904 584.099 115.02 584.163 115.147 584.178C115.275 584.193 115.403 584.157 115.503 584.077C115.604 583.998 115.669 583.881 115.684 583.754C119.903 562.469 122.668 540.922 123.959 519.261Z" fill="#263238"/>
<path d="M101.773 357.765C101.773 357.621 101.485 357.765 101.533 357.877C105.359 368.458 107.52 379.167 110.289 390.004C110.316 390.098 110.377 390.179 110.46 390.231C110.542 390.283 110.642 390.304 110.738 390.288C110.835 390.272 110.922 390.221 110.984 390.145C111.046 390.069 111.078 389.973 111.074 389.876C109.953 378.879 106.031 367.914 101.773 357.765Z" fill="#263238"/>
<path d="M198.889 402.121C196.336 408.321 193.401 414.357 190.101 420.193C183.202 432.695 176.031 444.204 174.718 458.722C174.142 465.221 173.934 471.752 171.949 477.931C170.151 483.321 167.562 488.414 164.265 493.042C156.806 503.91 147.474 513.291 140.559 524.576C133.357 536.339 128.037 549.155 124.792 562.561C124.632 563.297 123.479 563.089 123.639 562.368C123.646 562.31 123.646 562.251 123.639 562.192C123.629 562.17 123.624 562.145 123.624 562.12C123.624 562.096 123.629 562.071 123.639 562.048C122.535 530.818 125.032 499.348 134.556 469.431C138.759 456.287 143.806 443.428 149.667 430.934C154.773 420.097 161.128 409.66 170.092 401.561C175.902 396.326 188.5 386.402 196.776 391.652C200.794 394.214 200.457 398.199 198.889 402.121Z" fill="#005B8E"/>
<path d="M167.515 472.889C162.004 481.949 155.942 490.663 149.363 498.98C146.337 502.918 143.28 506.84 140.255 510.794C138.83 512.65 137.229 514.507 135.917 516.524C136.749 513.243 137.517 509.945 138.382 506.664C142.416 490.897 146.289 474.97 152.292 459.811C158.151 444.972 165.962 430.998 173.966 417.296C174.19 416.944 173.597 416.672 173.389 417.024C166.794 427.877 160.087 438.713 154.549 450.159C151.48 456.54 148.807 463.105 146.545 469.815C149.094 455.58 152.651 441.543 157.19 427.813C157.19 427.684 157.062 427.604 157.014 427.732C151.047 441.619 147.314 456.363 145.953 471.416C144.598 475.471 143.344 479.564 142.191 483.693C137.277 501.157 132.955 518.813 128.954 536.517C128.884 524.87 129.891 513.242 131.963 501.782C131.963 501.525 131.611 501.461 131.547 501.782C128.502 513.73 127.485 526.105 128.537 538.39C127.022 545.134 125.544 551.873 124.103 558.607C121.046 573.013 117.268 587.66 115.475 602.274C115.469 602.312 115.47 602.351 115.479 602.388C115.488 602.426 115.504 602.461 115.526 602.492C115.548 602.523 115.576 602.55 115.609 602.57C115.642 602.59 115.678 602.604 115.716 602.61C115.753 602.617 115.792 602.616 115.83 602.607C115.867 602.598 115.902 602.582 115.933 602.56C115.965 602.538 115.991 602.51 116.011 602.477C116.032 602.444 116.045 602.408 116.052 602.37C118.197 594.495 119.493 586.363 121.238 578.36C122.983 570.356 124.808 562.353 126.664 554.349C129.386 542.728 132.203 531.133 135.116 519.565C137.053 515.324 140.783 511.562 143.584 508.008C146.657 504.103 149.731 500.197 152.724 496.227C158.34 488.883 163.366 481.106 167.755 472.969C167.883 472.841 167.611 472.729 167.515 472.889Z" fill="#263238"/>
<path d="M168.779 459.539C161.963 468.315 156.063 477.766 151.171 487.743C151.171 487.871 151.299 488.015 151.38 487.887C157.35 478.523 163.225 469.079 169.195 459.715C169.211 459.555 168.955 459.395 168.779 459.539Z" fill="#263238"/>
<path d="M35.92 431.702C39.9698 438.681 44.5799 447.037 42.8511 455.409C41.7466 460.707 37.8729 465.013 37.1686 470.408C35.5679 482.333 47.4772 490.224 56.089 495.859C77.5226 509.929 106.928 522.463 110.833 551.196C110.977 552.22 112.738 551.964 112.61 550.955C112.623 550.897 112.623 550.837 112.61 550.779C112.61 550.779 112.722 550.683 112.722 550.603C115.528 536.099 115.391 521.179 112.322 506.728C109.121 491.921 102.718 478.619 95.0344 465.605C82.1326 443.596 68.4625 421.042 48.9498 404.186C43.5554 399.528 32.4945 391.124 28.1405 401.657C23.9627 411.901 30.9578 423.203 35.92 431.702Z" fill="#005B8E"/>
<path d="M55.5448 478.379C69.7591 493.762 92.3612 502.39 104.591 519.629C97.3394 493.218 85.3821 469.447 66.8938 448.814C66.8129 448.706 66.7736 448.573 66.7832 448.438C66.7927 448.303 66.8505 448.177 66.9459 448.082C67.0412 447.986 67.1678 447.928 67.3023 447.919C67.4368 447.909 67.5703 447.949 67.6782 448.03C80.7696 460.747 91.2386 475.909 98.4919 492.657C95.1136 480.964 90.6718 469.605 85.222 458.722C85.192 458.641 85.1913 458.552 85.2202 458.471C85.2492 458.39 85.3058 458.321 85.3801 458.277C85.4545 458.233 85.542 458.217 85.6272 458.231C85.7124 458.245 85.79 458.289 85.8463 458.354C92.6041 470.253 97.429 483.15 100.141 496.563C116.276 535.589 117.748 581.401 114.387 622.507C114.387 623.1 113.443 623.116 113.459 622.507C114.387 590.093 113.859 557.102 106.095 525.44C105.935 524.768 105.743 524.127 105.583 523.471C92.2651 504.903 69.7591 496.259 55.2886 478.651C55.1286 478.459 55.3847 478.203 55.5448 478.379Z" fill="#263238"/>
<path d="M52.2473 465.157C59.7066 472.008 67.0539 479.003 74.5292 485.854C74.5292 485.854 74.5292 486.046 74.4172 485.998C65.9661 480.286 58.3533 473.422 51.7991 465.605C51.7529 465.544 51.7304 465.467 51.7359 465.391C51.7413 465.314 51.7743 465.241 51.8288 465.187C51.8833 465.132 51.9556 465.099 52.0325 465.094C52.1094 465.088 52.1856 465.111 52.2473 465.157Z" fill="#263238"/>
<path d="M51.0628 435.496C57.6947 446.321 65.189 456.594 73.4728 466.214C73.4843 466.226 73.4933 466.241 73.4991 466.257C73.505 466.273 73.5076 466.29 73.5069 466.307C73.5061 466.324 73.502 466.341 73.4948 466.357C73.4876 466.372 73.4774 466.386 73.4648 466.398C73.4521 466.409 73.4374 466.418 73.4213 466.424C73.4052 466.43 73.3881 466.433 73.371 466.432C73.354 466.431 73.3372 466.427 73.3217 466.42C73.3062 466.413 73.2922 466.402 73.2807 466.39C63.9886 457.589 56.3307 447.211 50.6626 435.736C50.6465 435.685 50.6482 435.629 50.6674 435.579C50.6866 435.529 50.7221 435.486 50.7683 435.459C50.8144 435.431 50.8686 435.42 50.922 435.426C50.9754 435.433 51.025 435.458 51.0628 435.496Z" fill="#263238"/>
<path d="M84.6617 651.464H150.035L141.215 563.521H94.7302L84.6617 651.464Z" fill="#455A64"/>
<path d="M93.0975 577.815H142.656L141.231 563.521H94.7302L93.0975 577.815Z" fill="#263238"/>
<path d="M86.7107 567.827H147.986V553.789H86.7107V567.827Z" fill="#455A64"/>
<path d="M574.262 90.6678C572.166 90.6897 570.073 90.5069 568.01 90.1217L565.657 89.5755L567.782 88.4102C574.806 84.6051 578.916 80.3448 580.075 75.6658C580.665 73.1955 580.306 70.5843 579.074 68.3832H578.687V68.0009C565.534 60.7183 558 49.9037 558 38.3427C558 17.205 583.359 0 614.53 0C645.702 0 671.079 17.205 671.079 38.3427C671.079 59.4803 645.614 76.7946 614.443 76.7946C609.944 76.8043 605.451 76.439 601.008 75.7022C593.826 88.5013 581.655 90.6678 574.262 90.6678ZM570.908 88.7015C576.861 89.2659 591.841 89.0657 599.779 74.2275L600.077 73.6631L600.692 73.7541C605.235 74.5502 609.835 74.9461 614.443 74.9375C644.648 74.9375 669.235 58.5518 669.235 38.4155C669.235 18.2792 644.648 1.89347 614.443 1.89347C584.237 1.89347 559.668 18.2792 559.668 38.4155C559.668 49.3393 566.974 59.6441 579.724 66.6354H579.952L580.075 66.8175L580.356 66.9631V67.2362C581.142 68.5555 581.666 70.0239 581.898 71.5557C582.13 73.0874 582.066 74.6518 581.708 76.1573C580.619 80.7453 577.002 84.951 570.908 88.7015Z" fill="#5172E5"/>
<path d="M590.607 27.6373H580L603.655 61.1917L648.033 0H643.046L602.163 43.4222L590.607 27.6373Z" fill="#263238"/>
<defs>
<filter id="filter0_d_1_9216" x="270" y="125" width="147.682" height="438.317" filterUnits="userSpaceOnUse" color-interpolation-filters="sRGB">
<feFlood flood-opacity="0" result="BackgroundImageFix"/>
<feColorMatrix in="SourceAlpha" type="matrix" values="0 0 0 0 0 0 0 0 0 0 0 0 0 0 0 0 0 0 127 0" result="hardAlpha"/>
<feOffset dx="7" dy="4"/>
<feGaussianBlur stdDeviation="2"/>
<feComposite in2="hardAlpha" operator="out"/>
<feColorMatrix type="matrix" values="0 0 0 0 0 0 0 0 0 0 0 0 0 0 0 0 0 0 0.25 0"/>
<feBlend mode="normal" in2="BackgroundImageFix" result="effect1_dropShadow_1_9216"/>
<feBlend mode="normal" in="SourceGraphic" in2="effect1_dropShadow_1_9216" result="shape"/>
</filter>
<radialGradient id="paint0_radial_1_9216" cx="0" cy="0" r="1" gradientUnits="userSpaceOnUse" gradientTransform="translate(333.637 344.591) rotate(90) scale(288.289 145.585)">
<stop offset="0.447917" stop-color="white"/>
<stop offset="1" stop-color="#6FCAFD"/>
</radialGradient>
</defs>
</svg>
